PathFileType	4	(X/Y/Z)	Gait_media_markers.trc
DataRate	CameraRate	NumFrames	NumMarkers	Units	OrigDataRate	OrigDataStartFrame	OrigNumFrames
100	100	11	38	m	100	81	92
Frame#	Time	RASI			RPSI			LPSI			LASI			RTROCH			RTHI			RTHI2			RTHI3			RTHI4			RKNE			RKNEM			RTIB			RTIB2			RTIB3			RTIB4			RANK			RANKM			RHEE			RTOE			RTOEL			RTOEM			LTROCH			LTHI			LTHI2			LTHI3			LTHI4			LKNE			LKNEM			LTIB			LTIB2			LTIB3			LTIB4			LANK			LANKM			LHEE			LTOE			LTOEL			LTOEM
		X1	Y1	Z1	X2	Y2	Z2	X3	Y3	Z3	X4	Y4	Z4	X5	Y5	Z5	X6	Y6	Z6	X7	Y7	Z7	X8	Y8	Z8	X9	Y9	Z9	X10	Y10	Z10	X11	Y11	Z11	X12	Y12	Z12	X13	Y13	Z13	X14	Y14	Z14	X15	Y15	Z15	X16	Y16	Z16	X17	Y17	Z17	X18	Y18	Z18	X19	Y19	Z19	X20	Y20	Z20	X21	Y21	Z21	X22	Y22	Z22	X23	Y23	Z23	X24	Y24	Z24	X25	Y25	Z25	X26	Y26	Z26	X27	Y27	Z27	X28	Y28	Z28	X29	Y29	Z29	X30	Y30	Z30	X31	Y31	Z31	X32	Y32	Z32	X33	Y33	Z33	X34	Y34	Z34	X35	Y35	Z35	X36	Y36	Z36	X37	Y37	Z37	X38	Y38	Z38

81	0.800000	-0.325407	0.938793	0.119310	-0.275504	0.975997	-0.067405	-0.180419	0.965521	-0.064283	-0.097836	0.935927	0.114452	-0.394582	0.864554	0.068052	-0.402723	0.744636	0.098467	-0.381264	0.765036	0.160134	-0.370992	0.689370	0.193410	-0.391682	0.665871	0.135532	-0.351365	0.531362	0.197121	-0.240033	0.528506	0.171003	-0.377841	0.398110	0.204460	-0.340568	0.408453	0.260401	-0.338895	0.321927	0.279510	-0.376990	0.316074	0.224302	-0.330480	0.097787	0.261456	-0.256935	0.114077	0.288714	-0.288671	0.047834	0.218632	-0.308726	0.091510	0.446148	-0.365484	0.052646	0.402509	-0.257161	0.059859	0.432925	-0.054418	0.870534	0.026800	-0.063167	0.664703	0.010070	-0.080658	0.653590	0.067165	-0.096329	0.575230	0.043808	-0.078991	0.582027	-0.016298	-0.097277	0.496584	-0.025861	-0.207536	0.521079	-0.022930	-0.079689	0.324796	-0.176017	-0.110555	0.296591	-0.126573	-0.119057	0.229227	-0.183223	-0.089328	0.261163	-0.228335	-0.112133	0.151407	-0.305558	-0.192836	0.162510	-0.280709	-0.151278	0.132854	-0.384262	-0.159978	0.048865	-0.176487	-0.101034	0.047413	-0.212943	-0.208210	0.050587	-0.200430
82	0.810000	-0.326117	0.940689	0.131309	-0.276426	0.977549	-0.055480	-0.181022	0.966608	-0.052303	-0.098564	0.936646	0.126197	-0.390568	0.864960	0.083220	-0.404055	0.746079	0.112759	-0.379559	0.766975	0.172665	-0.368193	0.691074	0.205367	-0.392293	0.668092	0.148084	-0.350056	0.534010	0.212249	-0.240951	0.530351	0.181238	-0.377409	0.397921	0.217495	-0.340320	0.408077	0.270277	-0.338942	0.320832	0.287036	-0.378124	0.317197	0.232633	-0.331388	0.098040	0.263697	-0.257532	0.113693	0.291778	-0.288979	0.048660	0.219659	-0.310902	0.087023	0.448858	-0.366980	0.048769	0.403547	-0.259132	0.055629	0.434906	-0.055615	0.870971	0.038886	-0.063366	0.664398	0.024625	-0.080361	0.654102	0.082420	-0.095105	0.574941	0.060982	-0.078349	0.580815	0.000618	-0.095564	0.495442	-0.007344	-0.206370	0.518408	-0.002531	-0.078695	0.328332	-0.162968	-0.108143	0.296189	-0.115179	-0.116738	0.233845	-0.173351	-0.088871	0.267148	-0.217609	-0.111868	0.158414	-0.297153	-0.191858	0.168211	-0.270212	-0.152184	0.144577	-0.375817	-0.159449	0.049311	-0.174893	-0.101081	0.048111	-0.211385	-0.207787	0.050968	-0.197611
83	0.820000	-0.327185	0.942969	0.143058	-0.277482	0.979171	-0.043761	-0.181887	0.968123	-0.040663	-0.099828	0.937888	0.137439	-0.396133	0.869302	0.093355	-0.404931	0.748672	0.126543	-0.378345	0.770068	0.184986	-0.365933	0.694678	0.218749	-0.392114	0.670931	0.162324	-0.349160	0.536190	0.224865	-0.242001	0.532770	0.192990	-0.379585	0.400870	0.224453	-0.340461	0.408670	0.279723	-0.338694	0.320456	0.294742	-0.379013	0.318138	0.240816	-0.331886	0.098118	0.265783	-0.257666	0.113471	0.294068	-0.289232	0.049365	0.220473	-0.311093	0.083131	0.451198	-0.367157	0.046215	0.405218	-0.259017	0.053171	0.435855	-0.056812	0.871747	0.050842	-0.063876	0.664086	0.039783	-0.079501	0.654849	0.098237	-0.092625	0.575089	0.078920	-0.077361	0.579673	0.018030	-0.093209	0.494538	0.012015	-0.203957	0.515287	0.019836	-0.077557	0.332627	-0.148610	-0.105363	0.298353	-0.101003	-0.114658	0.236117	-0.160981	-0.088259	0.273152	-0.205233	-0.111322	0.166578	-0.288009	-0.190554	0.174412	-0.257940	-0.152814	0.157798	-0.365719	-0.159506	0.049550	-0.172816	-0.101191	0.049729	-0.209441	-0.207527	0.052323	-0.194330
84	0.830000	-0.328302	0.945233	0.154724	-0.278829	0.981026	-0.032559	-0.183013	0.969675	-0.029323	-0.100571	0.939419	0.148626	-0.398079	0.870746	0.103761	-0.405197	0.750417	0.139659	-0.377290	0.773583	0.196840	-0.364186	0.699176	0.232622	-0.389265	0.671720	0.181418	-0.348695	0.538160	0.236164	-0.243228	0.534547	0.204831	-0.379504	0.400747	0.235032	-0.339851	0.407444	0.287274	-0.338404	0.320576	0.301950	-0.379381	0.318974	0.248391	-0.331521	0.098192	0.267942	-0.257604	0.113373	0.295922	-0.289693	0.049952	0.220886	-0.310582	0.079113	0.452455	-0.366775	0.043644	0.406110	-0.258374	0.049189	0.437020	-0.058244	0.872676	0.062568	-0.063643	0.663866	0.055299	-0.077849	0.655904	0.114232	-0.089779	0.574807	0.096915	-0.075729	0.579049	0.035739	-0.090632	0.494262	0.031758	-0.200519	0.511701	0.044148	-0.075891	0.336013	-0.131612	-0.103173	0.299314	-0.084498	-0.112993	0.239849	-0.147154	-0.087138	0.278431	-0.190139	-0.110638	0.175083	-0.276662	-0.189422	0.181186	-0.245066	-0.153434	0.172171	-0.353920	-0.159412	0.050767	-0.169461	-0.101169	0.052116	-0.206629	-0.207235	0.054581	-0.190028
85	0.840000	-0.329726	0.947662	0.166095	-0.279891	0.982661	-0.020908	-0.184346	0.971214	-0.018097	-0.102176	0.941543	0.159960	-0.394127	0.871041	0.116946	-0.406264	0.752900	0.152198	-0.377223	0.776731	0.208705	-0.363888	0.702766	0.245468	-0.390240	0.674617	0.195127	-0.349303	0.539240	0.245795	-0.244594	0.536318	0.214405	-0.379247	0.401545	0.243550	-0.339452	0.407399	0.295261	-0.338015	0.320476	0.308475	-0.379291	0.319734	0.255271	-0.331652	0.098366	0.270040	-0.257198	0.112959	0.297535	-0.289739	0.050449	0.221487	-0.308703	0.076076	0.454425	-0.365817	0.041948	0.407325	-0.256645	0.046837	0.437840	-0.059541	0.873631	0.073925	-0.063253	0.663970	0.070733	-0.075186	0.657072	0.130082	-0.086494	0.575761	0.115803	-0.074423	0.578196	0.053739	-0.087952	0.493243	0.052001	-0.196145	0.508474	0.069854	-0.075097	0.339006	-0.113324	-0.101475	0.300917	-0.068178	-0.111126	0.243880	-0.132000	-0.085764	0.284516	-0.174523	-0.110127	0.184510	-0.263839	-0.188526	0.188631	-0.231222	-0.153691	0.187456	-0.340222	-0.158536	0.053174	-0.163890	-0.100893	0.055532	-0.202613	-0.206619	0.058038	-0.184432
86	0.850000	-0.331111	0.950106	0.178570	-0.281210	0.984229	-0.009384	-0.185758	0.972783	-0.007182	-0.103375	0.943446	0.170564	-0.400073	0.874218	0.125357	-0.407057	0.754783	0.163491	-0.378507	0.778664	0.220105	-0.365437	0.704299	0.256467	-0.391578	0.676456	0.205959	-0.350396	0.539357	0.253931	-0.245399	0.538321	0.223049	-0.379210	0.402215	0.250301	-0.339011	0.407057	0.302640	-0.337445	0.319847	0.314463	-0.378740	0.320135	0.261348	-0.331799	0.098862	0.271374	-0.256698	0.112230	0.299333	-0.289766	0.050689	0.221988	-0.307679	0.072629	0.455827	-0.365517	0.040907	0.408344	-0.256125	0.043010	0.438341	-0.060813	0.874619	0.085118	-0.062936	0.663954	0.086343	-0.073055	0.658453	0.146640	-0.083433	0.576164	0.134242	-0.073017	0.577986	0.071522	-0.085848	0.492630	0.072951	-0.193182	0.506237	0.095373	-0.074177	0.343050	-0.094638	-0.098400	0.305318	-0.049142	-0.109756	0.248498	-0.116095	-0.086317	0.289241	-0.156542	-0.109629	0.194473	-0.249611	-0.187521	0.196245	-0.215724	-0.153848	0.203083	-0.324640	-0.157444	0.055384	-0.158271	-0.100329	0.060205	-0.197691	-0.205584	0.062725	-0.177636
87	0.860000	-0.332246	0.951309	0.189137	-0.282723	0.985764	0.001951	-0.187134	0.974166	0.003508	-0.104291	0.945408	0.180767	-0.400386	0.876259	0.136274	-0.408580	0.755974	0.173063	-0.381653	0.778500	0.231137	-0.368524	0.703807	0.265933	-0.392531	0.676732	0.214013	-0.351428	0.538893	0.261125	-0.244799	0.539690	0.231943	-0.379032	0.402159	0.256816	-0.338894	0.406469	0.309464	-0.337066	0.318988	0.319579	-0.377770	0.319616	0.266870	-0.331147	0.099116	0.272995	-0.256080	0.111743	0.300607	-0.289632	0.050971	0.222279	-0.307117	0.071173	0.457242	-0.365388	0.040261	0.408946	-0.255179	0.041777	0.438628	-0.062024	0.875694	0.095918	-0.062544	0.664117	0.102056	-0.070772	0.659924	0.162810	-0.080664	0.577144	0.152688	-0.072195	0.577689	0.089355	-0.083971	0.492396	0.094570	-0.191136	0.504825	0.120007	-0.073511	0.347858	-0.075557	-0.096525	0.308041	-0.030943	-0.108306	0.253316	-0.099195	-0.086062	0.295667	-0.138661	-0.109233	0.204534	-0.234514	-0.186075	0.203982	-0.198906	-0.154703	0.218572	-0.307015	-0.155206	0.058956	-0.150237	-0.099406	0.065484	-0.191923	-0.203934	0.068791	-0.169001
88	0.870000	-0.333255	0.952340	0.200667	-0.284213	0.987134	0.013247	-0.188681	0.975503	0.013937	-0.105648	0.947068	0.191043	-0.401209	0.877926	0.147362	-0.409724	0.756401	0.180130	-0.385025	0.777267	0.240688	-0.372359	0.701457	0.273711	-0.395868	0.677752	0.215977	-0.352070	0.538020	0.268016	-0.244365	0.540531	0.240162	-0.378518	0.401869	0.262892	-0.338940	0.405507	0.315472	-0.336688	0.317896	0.324337	-0.377563	0.319581	0.270944	-0.330620	0.099312	0.274039	-0.255012	0.111467	0.301571	-0.289709	0.051711	0.221601	-0.306734	0.069274	0.458184	-0.365284	0.039863	0.409292	-0.254186	0.040184	0.439306	-0.063143	0.876760	0.106634	-0.062340	0.664539	0.117790	-0.069626	0.661224	0.179074	-0.077838	0.579173	0.171153	-0.071257	0.577728	0.107594	-0.082540	0.493007	0.115860	-0.189468	0.504982	0.144044	-0.072866	0.353130	-0.055861	-0.095449	0.311465	-0.012265	-0.107594	0.258968	-0.081925	-0.085802	0.302660	-0.120244	-0.109410	0.214658	-0.218552	-0.185308	0.212395	-0.181150	-0.155450	0.234470	-0.288188	-0.152230	0.063340	-0.140137	-0.098462	0.070546	-0.185055	-0.201585	0.075236	-0.157768
89	0.880000	-0.334368	0.953403	0.211833	-0.285570	0.988465	0.024335	-0.190046	0.976609	0.024676	-0.107053	0.948893	0.201451	-0.402271	0.879295	0.158685	-0.409799	0.754363	0.187511	-0.389133	0.775365	0.249278	-0.375744	0.698307	0.280438	-0.393391	0.673532	0.224957	-0.352986	0.537627	0.275781	-0.244171	0.541362	0.247476	-0.378446	0.401640	0.268156	-0.339194	0.404709	0.320945	-0.336738	0.317036	0.328511	-0.377517	0.319346	0.274470	-0.330990	0.099773	0.274586	-0.255933	0.110007	0.302078	-0.289558	0.051877	0.221739	-0.306556	0.067907	0.458513	-0.365313	0.039684	0.409469	-0.253856	0.038997	0.439852	-0.064014	0.878104	0.117324	-0.062132	0.665284	0.133826	-0.068527	0.663431	0.195434	-0.076178	0.581118	0.189451	-0.070558	0.578262	0.125802	-0.080752	0.493823	0.138074	-0.188237	0.506126	0.166837	-0.072440	0.359146	-0.035982	-0.093203	0.316522	0.007541	-0.105151	0.264544	-0.064143	-0.086000	0.310254	-0.101512	-0.109730	0.224885	-0.201592	-0.184756	0.220331	-0.162252	-0.158052	0.247366	-0.268971	-0.147773	0.067102	-0.127084	-0.096662	0.078826	-0.175283	-0.198750	0.080584	-0.143614
90	0.890000	-0.335276	0.954319	0.223069	-0.286952	0.989880	0.035302	-0.191475	0.977768	0.035137	-0.107679	0.950503	0.211922	-0.403252	0.880417	0.170004	-0.409662	0.754781	0.192759	-0.391777	0.774060	0.256829	-0.377646	0.696807	0.286871	-0.395285	0.674497	0.226336	-0.353177	0.537466	0.282838	-0.244579	0.541894	0.254972	-0.378831	0.402063	0.272112	-0.339633	0.403861	0.326166	-0.337024	0.316211	0.332293	-0.377138	0.319173	0.278456	-0.330344	0.099820	0.275582	-0.254978	0.110521	0.302705	-0.289378	0.052035	0.222011	-0.306501	0.066694	0.458965	-0.365430	0.039447	0.409602	-0.253422	0.038067	0.440179	-0.064974	0.879568	0.128062	-0.061597	0.666757	0.150162	-0.066906	0.666308	0.211031	-0.074732	0.583526	0.208142	-0.069347	0.579717	0.144150	-0.079068	0.495756	0.159975	-0.187088	0.508160	0.189041	-0.072344	0.364812	-0.015371	-0.091107	0.321071	0.027322	-0.104586	0.271765	-0.045154	-0.085547	0.318326	-0.082057	-0.112018	0.233507	-0.183588	-0.185070	0.226846	-0.142646	-0.162665	0.256881	-0.249223	-0.142113	0.071855	-0.112103	-0.093845	0.087307	-0.162291	-0.194639	0.084807	-0.127983
91	0.900000	-0.336076	0.955417	0.234062	-0.288461	0.991374	0.045974	-0.193011	0.979225	0.045433	-0.108793	0.952242	0.222263	-0.404203	0.881606	0.180954	-0.410339	0.754932	0.200785	-0.392765	0.774606	0.264084	-0.378460	0.697153	0.293468	-0.395349	0.675313	0.232344	-0.353420	0.537766	0.289622	-0.245493	0.542673	0.261856	-0.378944	0.401673	0.277324	-0.340546	0.403426	0.330936	-0.337376	0.315428	0.335582	-0.377415	0.319181	0.281700	-0.329907	0.099720	0.276240	-0.254828	0.110587	0.303156	-0.289384	0.052121	0.222050	-0.306515	0.065700	0.459258	-0.365560	0.039301	0.409675	-0.253121	0.037422	0.440488	-0.065781	0.881137	0.138784	-0.061208	0.668706	0.166856	-0.066357	0.669962	0.228541	-0.072573	0.587399	0.227065	-0.068011	0.581595	0.163098	-0.077230	0.497952	0.181933	-0.185947	0.510551	0.210694	-0.072417	0.371199	0.005041	-0.089012	0.325922	0.047392	-0.103019	0.277921	-0.025300	-0.086154	0.325722	-0.062388	-0.113963	0.242340	-0.164673	-0.185539	0.232538	-0.122056	-0.167550	0.264964	-0.228530	-0.136226	0.078609	-0.095472	-0.090090	0.096888	-0.146419	-0.189640	0.089369	-0.109737
